<svg xmlns="http://www.w3.org/2000/svg" xmlns:xlink="http://www.w3.org/1999/xlink" viewBox="0 0 474 880"><defs><clipPath id="a"><rect x="0.03" y="41.89" width="431.18" height="669.89" style="fill:none"/></clipPath><clipPath id="b"><rect x="220.06" y="565.49" width="254.09" height="315.11" style="fill:none"/></clipPath><symbol id="c" viewBox="0 0 1200 600"><rect width="1200" height="600" style="fill:#fab612"/><rect x="215" y="50" width="165" height="500" style="fill:#eb5d1d"/><rect x="50" y="50" width="165" height="500" style="fill:#015742"/><rect x="430" y="50" width="725" height="500" style="fill:#8d212a"/><path d="M1086.06,466.06s6.8,13.84,14.31,19.48c11.13,8.36,33.95,7.75,43.63,17.5,11.6,11.5-.9,26.68-.8,28l.64,8s-7.82.09-11.12.61c-5,.77-6.89,4.8-16.11,4.2-23.19-1.5-22.25-22.4-23.57-40.25-1.17-6.8-3.86-15.66-5.39-22.46C1086.34,475.34,1086.06,466.06,1086.06,466.06Z" style="fill:#fab612;stroke:#010101;stroke-width:2.12576px"/><path d="M498.94,133.94s-6.8-13.84-14.31-19.48C473.5,106.1,450.68,106.71,441,97c-11.6-11.5.9-26.68.8-28l-.64-8s7.82-.09,11.12-.61c5-.77,6.89-4.8,16.11-4.2,23.19,1.5,22.25,22.4,23.57,40.25,1.17,6.8,3.86,15.66,5.39,22.46C498.66,124.66,498.94,133.94,498.94,133.94Z" style="fill:#fab612;stroke:#010101;stroke-width:2.12576px"/><path d="M1086.06,133.94s6.8-13.84,14.31-19.48c11.13-8.36,33.95-7.75,43.63-17.5,11.6-11.5-.9-26.68-.8-28l.64-8s-7.82-.09-11.12-.61c-5-.77-6.89-4.8-16.11-4.2-23.19,1.5-22.25,22.4-23.57,40.25-1.17,6.8-3.86,15.66-5.39,22.46C1086.34,124.66,1086.06,133.94,1086.06,133.94Z" style="fill:#fab612;stroke:#010101;stroke-width:2.12576px"/><path d="M498.94,466.06s-6.8,13.84-14.31,19.48C473.5,493.9,450.68,493.3,441,503c-11.6,11.5.9,26.68.8,28l-.64,8s7.82.09,11.12.61c5,.77,6.89,4.8,16.11,4.2,23.19-1.5,22.25-22.4,23.57-40.25,1.17-6.8,3.86-15.66,5.39-22.46C498.66,475.34,498.94,466.06,498.94,466.06Z" style="fill:#fab612;stroke:#010101;stroke-width:2.12576px"/><path d="M681.54,479.56,685.9,477l1.87,2.52c2.48,3.36,9.36,3.32,13.92-.08l3.49-2.6,2.92,2.6c3.84,3.42,11,3.42,15.59,0,3.21-2.39,3.65-2.44,5.77-.62,1.26,1.08,5,2.32,8.24,2.74,5.88.76,6,.72,9.41-4.44,2.88-4.32,3.33-6.08,2.65-10.27-.46-2.78-.95-7.26-1.09-9.95-.26-4.87-.23-4.9,6.86-7.37a95.67,95.67,0,0,0,10.08-4.07c2.83-1.52,10.64-10.7,10.64-12.51,0-.48-3.05-1.21-6.78-1.63-14.83-1.66-17.34-9.63-7.7-24.42C777.48,382.83,787,359.34,787,344.37c0-6.69.41-8.94,1.27-7.48,3.51,5.95-2.78,30.88-12.32,48.78l-3.84,7.21,3.66-.84c2-.46,13.86-5.46,26.32-11.11C836.25,365.47,848,362.45,870,363.38c18.5.78,26.37,4.39,39.43,18.09,6.92,7.26,13.58,12.45,25.77,20.08,26,16.26,27.06,17.67,28.29,36.79,1.25,19.37.63,20.42-14,23.66-12.52,2.77-20.37,8.6-22.48,16.72-1.12,4.33,1.24,4.46,7.56.4l4.63-3,2.06,3c2.7,3.91,8.45,3.93,13.23,0l3.61-2.94,3.69,2.94c5.73,4.56,13.35,3.46,15.5-2.25.41-1.1,1.52-.75,3.75,1.2,4.19,3.64,14.91,5.2,16.07,2.34.44-1.09-.4-3.79-1.87-6-6.24-9.36-8.19-13.82-8.28-18.92-.11-7.09,2-10.51,10.06-16.27,9.79-7,12.82-16,5.37-16-4.6,0-9.23-4.06-12.19-10.69-6-13.46-4.83-28.55,4.19-53.66,9.16-25.5,10.17-30.2,10.21-47.26,0-13.79-.32-16.17-3.46-23.73a85.15,85.15,0,0,0-8.65-15.29l-5.16-6.89,6.63-5.49c20.23-16.76,16.09-44.2-8.26-54.77-7.45-3.23-9.31-3.52-22.37-3.43a190.63,190.63,0,0,0-26.54,2.29,184.23,184.23,0,0,1-26.59,2.25c-12.72.05-14.88-.26-19.79-2.87-5.11-2.72-6-4-7-10.3a3.75,3.75,0,0,0-2-2.87c-1.74-.55-9.77,6.42-11,9.51-.59,1.52-1.06,1.42-2.78-.61a25.09,25.09,0,0,1-3.54-6.89c-2-6.14.46-10.73,7.67-14.18l5.6-2.67-3.3-2c-6.81-4.22-18.38-1.33-22.57,5.64-1.18,2-2.48,3.59-2.87,3.59s-2.65-1.88-5-4.18c-8.79-8.59-5.77-21.3,6-25.18,6.27-2.07,11.82-.49,13,3.69,1.76,6.38,7.24-2,6.26-9.58-.65-5-.56-5.21,2.93-5.21,4.85,0,15.17,6.36,18.36,11.32,3.71,5.76,3.44,14.82-.64,21.58l-3.2,5.31,4.19-.84c6.14-1.23,12.11-5,15.13-9.67,3.19-4.89,3.54-14.42.7-19.56-2.74-5-2.43-5.77,1.63-4.09,6.9,2.86,10.58,6,13.35,11.43,2.49,4.87,2.63,6.08,1.28,11.16a32,32,0,0,1-4.11,9.15c-2.23,3-2.3,3.46-.53,3.46,3.3,0,10.21-3.13,12.66-5.74a25.67,25.67,0,0,0,4-7.21l1.76-4.82,2,3.67c2.86,5.19,8.42,9.86,15.2,12.77,7.29,3.13,10.33,3.3,6.52.38-2.57-2-7.31-15.88-5.87-17.24.84-.8,10.75,6.82,22.05,17,10.69,9.6,17.42,12.75,27.24,12.75,12.55,0,19.85-10.92,14.21-21.25-3.29-6-10.61-6.86-14.9-1.7-2,2.37-2.51,4.26-1.93,6.75.71,3,.43,3.45-2.34,3.45-3.65,0-10.84-4.67-23.61-15.32-19.47-16.25-43.13-30-60.21-35-11-3.23-34.38-4.49-45.53-2.45-12.06,2.21-26.33,9.11-34.1,16.5-13.77,13.09-14,30.52-.58,46.39l3.84,4.54-2.6,4a17.48,17.48,0,0,0,.8,19.61c1.88,2.57,3.77,4.66,4.21,4.66s.92-1.65,1.07-3.67c.38-5.1,2.56-8.51,6.32-9.86,3.38-1.22,5.57-.64,21.05,5.54,16.29,6.5,43.08,6.95,71.56,1.19,14-2.82,30.43-2.65,37.67.38,13.28,5.56,16.36,20,6.6,31-4.23,4.76-8.3,6.69-22,10.45-10.41,2.86-12.88,3-36.54,2.81-20.22-.2-27.48.19-35.74,1.91-9,1.87-14.47,2.06-40.79,1.4l-30.43-.77,3.37,2.79a53.13,53.13,0,0,0,5.83,4.2c2.3,1.32,2.22,1.49-1.19,2.76a35.54,35.54,0,0,1-9.89,1.35H811.5l-.84,5.31c-.46,2.92-.43,6.33.08,7.57.75,1.84.47,2.1-1.47,1.4-1.31-.48-5-1.42-8.13-2.09a50,50,0,0,1-9.44-3c-3.42-1.68-3.81-1.63-5.07.6-1.13,2-11.7,9.87-13.25,9.87-.25,0-.57-1.52-.72-3.37s-1.67-6.68-3.39-10.73-3.52-8.46-4-9.81c-.72-2-1-2.14-1.91-.61a26.33,26.33,0,0,0-1.86,6.13,29.09,29.09,0,0,1-3.54,8.52l-2.72,4.23-1.74-3.62c-1.87-3.88-5-7.91-6.08-7.91-.38,0-1,1.24-1.43,2.76-.85,3.17-8.2,12-10,12-.66,0-1.2-2.48-1.2-5.52s-.58-5.52-1.29-5.52-1.29.79-1.29,1.75c0,2.33-6.27,9.29-8.37,9.29a5.38,5.38,0,0,0-3.28,1.84c-2.31,2.64-4.2,2.27-3.23-.63.46-1.36.16-4.53-.66-7.05l-1.93-6c-.31-1-2.56-.7-7.31.82-7.69,2.46-10.26,2-6.31-1.07,1.45-1.13,3.64-5.05,4.88-8.71s3.07-6.91,4.07-7.21c1.4-.43,1.32.1-.32,2.33a10.78,10.78,0,0,0-2.14,4.76,15.65,15.65,0,0,1-2,5.43c-1.08,2-1.75,3.75-1.5,4s3.17-.87,6.5-2.47l6-2.9,0,2.59a45.78,45.78,0,0,0,1.62,8.36l1.59,5.77L724,290c4.2-1.93,8.19-8.82,8.19-14.16,0-2.64,1.51-2.24,2.13.57.18.82,1.13,3.91,2.11,6.87l1.78,5.37,2.82-3.39a28.77,28.77,0,0,0,4.32-8.13c1.43-4.52,3.68-6.47,3.68-3.18,0,2.37,6.46,10.86,7.71,10.13.6-.35,1.8-3.54,2.67-7.08,1.8-7.37,4.7-12.38,6.54-11.3a1.28,1.28,0,0,1,.6,1.75c-.36.56,1.12,5.35,3.31,10.65s4.37,10.63,4.87,11.86c.8,2,1.52,1.68,6.19-2.45,2.91-2.57,5.55-5.45,5.87-6.4.48-1.43,1.13-1.38,3.85.31,3.81,2.36,16.61,6.17,17.59,5.23.37-.35.75-3.71.84-7.47l.17-6.83,3.68.76a34.39,34.39,0,0,0,9.46-.06l5.78-.82L823,268.67c-2.83-1.94-5.7-4.46-6.36-5.59s-3.23-2.23-6.09-2.47c-7.71-.66-21.39-8.32-21.39-12,0-.69,1.89.48,4.21,2.6,5.13,4.71,12.27,7.66,18.5,7.66h4.66L813.67,255a22.25,22.25,0,0,1-3.49-9.82c-.56-5.48-1.13-6.35-6.86-10.33a66,66,0,0,1-9.46-8l-3.21-3.61L789,227.61c-.9,2.36-2,4.29-2.45,4.29s-2.18-1.38-3.85-3.07-3.38-3.06-3.79-3.05-1.89,2.28-3.29,5l-2.55,5-2-2.9a44.28,44.28,0,0,0-5.68-6.27c-2-1.86-3.12-3.37-2.39-3.37s3.25,1.93,5.6,4.29l4.28,4.29,1.74-3.15a11.19,11.19,0,0,0,1-7.05c-.68-3.38-.59-3.58.71-1.45a30.54,30.54,0,0,0,5.56,5.75l4.06,3.29,2.8-5.13c2.79-5.11,2.81-5.12,4.08-2.07,1.7,4.08,14,14.15,24.44,20q2.42,1.36-2-9.38a23.76,23.76,0,0,1-1.43-7.61c0-3.39-1-4.9-5.31-8.2-6.26-4.76-8.28-8.15-9.46-15.83-.48-3.11-1.57-6.58-2.43-7.69-1.28-1.66-1.49-.73-1.15,5,.23,3.89-.28,8.74-1.12,10.76l-1.54,3.68-1.19-3.07c-.66-1.69-3.56-4.62-6.45-6.52s-4.92-3.77-4.51-4.16,3.39,1.34,6.61,3.84c4.91,3.81,6,4.23,6.68,2.55.8-2,0-10.56-1.55-16.56-.77-3-.7-3,3,.72,2.73,2.73,4.23,6,5.4,11.65,1.48,7.21,2.23,8.41,8.9,14.26,4,3.51,7.48,6.19,7.74,6s.76-9.33,1.12-20.2c.7-20.84-.09-25.8-5.11-32.24l-2.58-3.31,4.05-4.37c5.29-5.7,7.72-10.28,8.77-16.51l.86-5.08-4.58,4.33c-3.75,3.55-5.54,4.33-9.87,4.33s-6-.72-8.87-3.81c-3.47-3.7-9.63-7.26-15.55-9-2.19-.64-2.91-.36-2.91,1.12,0,1.08-1.21,4.21-2.68,7l-2.68,5-5.62-5.56c-3.45-3.41-7.54-6.06-10.59-6.86-7.78-2-8.2-1.84-8.2,4,0,8.79-3.75,10.43-10.51,4.59-5.15-4.46-9.42-5.42-19.19-4.35l-7.54.83,1.36,3.41c1.13,2.84.88,4-1.55,7.27-3.94,5.24-9.06,7.51-16.95,7.51-3.63,0-8.18.75-10.1,1.67s-6.7,2-10.62,2.35a56.26,56.26,0,0,0-9.28,1.49c-1.86.69-2.06.12-1.46-4.1.91-6.46-3.6-11.22-10.63-11.22-9.12,0-13.33,8.16-9.76,18.92.69,2.07,1.59,5.34,2,7.26s4.54,7.28,9.57,12.32c4.85,4.85,9.44,9.9,10.19,11.22s3.24,3.44,5.53,4.7l4.16,2.31L677.6,202c-.6-4.89.46-5.66,3.07-2.21a23,23,0,0,0,5.25,4.43c3.08,1.9,3.56,1.94,3.56.29a19,19,0,0,1,1.4-5.35l1.4-3.45,2.42,4.7c1.33,2.58,5.67,8.46,9.64,13,7.7,8.91,12.39,18.87,10,21.16-1,.93-3.64.86-9.14-.25-4.26-.86-9.54-1.31-11.72-1-4.46.62-4.81,0-2.07-3.39,2.89-3.62,2.43-4.22-3.25-4.22-6.58,0-22.9-3.15-29.17-5.63-6.09-2.41-7.5-1.81-9.29,4-.81,2.6-2.29,7.31-3.28,10.47l-1.82,5.74,6.59-.63a69.07,69.07,0,0,0,10.36-1.76c2.07-.62,4-1,4.19-.73s-.7,2.46-2.05,5l-2.47,4.59,4.11-.84a38.69,38.69,0,0,0,7.56-2.51c3.3-1.6,3.57-1.48,6.17,2.7,3.2,5.14,5.76,4.93,6.33-.52.59-5.63,2.44-4.8,5.93,2.66,3.35,7.18,6.84,9.71,7.51,5.46.22-1.41,2-3.71,4-5.11,4-2.83,7-2,8.77,2.46,1.79,4.6-2.21,9.33-13.85,16.39q-35,21.21-40.76,58.13c-3.49,22.23,7.41,45.21,29.29,61.71,10.47,7.9,27.1,16.23,26,13.05-4.49-13.5-4.34-39.27.25-43.62.69-.65.45,2-.53,6-3.65,14.67-2.06,26.36,7.28,53.76,8.45,24.78,7.28,35.37-4.68,42.37-3.84,2.25-6.31,2.62-16.64,2.49-11.21-.14-12.43.09-16,3s-8,11.91-8,16.16c0,2.31,2.56,2,7.6-.9Zm90.82-214.92c0-1.8-5.28-6.68-10.64-9.82-4.2-2.47-4.9-2.54-4.91-.53,0,3.06-2.73,10.73-3.8,10.73-.6,0-1.49-1.5-2-3.33a29.48,29.48,0,0,0-4.53-8l-3.65-4.7L740,253.31c-2.65,4.06-7.23,8-9.27,8-.49,0-.58-2.14-.21-4.75.4-2.84.09-5.09-.77-5.59s-1.44-.3-1.44.36c0,1.53-6.37,8.75-7.71,8.75-.56,0-1.33-2.07-1.73-4.6s-1.07-6.53-1.49-8.89.48-.76,2,3.56L722.2,258l3.06-4.78c1.68-2.63,3.06-5.51,3.06-6.39s.57-1.27,1.26-.87,1.65,3.57,2.14,7l.88,6.29,3.37-3.69a54.33,54.33,0,0,0,4.82-6c1.43-2.3,1.51-2.3,4.35.11a29.82,29.82,0,0,1,5.43,7.17c1.4,2.59,2.73,4.53,3,4.29a29.89,29.89,0,0,0,1.14-5.94c.4-3,.75-5.63.79-5.77.2-.75,10.13,5.71,13.81,9,2.36,2.1,4.61,3.53,5,3.17s.69-3.46.69-6.89c0-5.32-.56-6.74-3.82-9.65-3.74-3.34-3.84-3.36-5.23-.92-1.79,3.17-3.91,3.22-3.91.08,0-2.29-7.07-11.08-8.9-11.08-.48,0-2,1.93-3.31,4.29s-2.79,4.29-3.21,4.29c-1.81,0-11.77-11.12-11.77-13.12,0-1.59.67-1.19,2.42,1.48a39.51,39.51,0,0,0,5.89,6.71c3.87,3.38,5.28,2.56,6.78-4,.43-1.85,1.17-3.37,1.64-3.37,1.66,0,10.33,9.21,11.55,12.26l1.22,3.07.93-3.37c1.13-4.12,2.38-4.28,4.2-.51.76,1.57,4.49,4.84,8.3,7.26l6.93,4.41,1.39-4.43c.76-2.44,1.78-3.84,2.25-3.11.71,1.08-1.09,8.42-2.45,10-.2.24-2.45-1.07-5-2.91l-4.62-3.33,0,6a43.7,43.7,0,0,1-.8,8.73c-.84,3-3.07,3.8-3.07,1.15ZM737.82,217c-8.23-6.87-9.48-8.44-9.3-11.7l.19-3.47.54,3.35c.31,2,2.51,4.88,5.27,7l4.73,3.69,2.91-3.36c1.6-1.85,2.93-4.05,3-4.9.07-2.2.46-2,6,2.82,5,4.3,5,4.32,5.76,1.53a14.59,14.59,0,0,0-.32-6.49c-1.62-5.55-1.3-6.39,1.15-3a60.1,60.1,0,0,0,4.36,5.24c2.05,2.11,2.18,2.09,2.94-.61a28.6,28.6,0,0,0,.82-6.31l0-3.49,4.46,5.06c4.17,4.73,4.55,4.9,5.83,2.65a18,18,0,0,0,1.38-7.09c0-3.32.36-4.16,1.21-2.9,1.41,2.11.43,7.87-2.18,12.78l-1.87,3.52-2.46-3.83c-3.14-4.89-4.19-4.81-6.2.47-1.91,5-3.14,5.37-5,1.53-1.2-2.48-1.43-2.18-2.28,3l-.95,5.8L752.15,214l-5.68-4.41-2.55,2.9c-1.4,1.6-2.57,3.59-2.6,4.44-.05,1.83-1.42,1.88-3.5.15ZM811,191.43c-3-2.7-5.06-5.27-4.59-5.72s1-.58,1.18-.29,2.63,2.87,5.44,5.72C819.56,197.72,818.23,197.91,811,191.43Zm-97.53-10.08c-2.73-3.69-2.54-6.13.78-10.12,2.4-2.89,3.49-3.28,7.68-2.75,2.69.34,8.46,2.71,12.84,5.27,5.06,3,10.28,4.93,14.33,5.43,3.51.43,6.38.59,6.38.36a46,46,0,0,0-3.24-5.27c-4.23-6.34-4.08-7,.69-3.22s10.75,5,23.84,4.64l6.39-.19-3.71-3.67c-5.19-5.13-3.59-5.59,2.14-.62,5.37,4.66,5,5-6.27,6.12a42.82,42.82,0,0,1-14.27-1c-6.43-1.63-6.67-1.61-5.46.55.7,1.24,1.84,2.26,2.53,2.26a1.33,1.33,0,0,1,1.25,1.4c0,2.36-13.88.29-20.51-3.07-15.15-7.67-17.06-8.34-20.66-7.2a8,8,0,0,0-4.71,4.34c-2.31,6.19,6.47,11,10.08,5.53,1-1.58.8-2.67-1-4.6-2.52-2.64-2.29-3,1.12-1.78,2.42.88,2.75,6.69.49,8.82C721.61,185,715.73,184.35,713.51,181.35Zm59.69-15.28c-1.89-1.79-.41-2.23,8.08-2.39,10.51-.2,16.89-1.95,24.42-6.7,6-3.81,7.67-3.06,1.94.89-5.22,3.6-13.37,6.37-21.24,7.22-3.81.41-8.15,1-9.65,1.26S773.66,166.5,773.19,166.07Zm90.26,313,4.7-3,3.19,3c4.18,4,9.08,3.87,13.09-.24,1.75-1.79,3.33-3,3.5-2.76s1,1.6,1.74,3c1,1.71,3,2.57,6.72,2.83,4.44.31,5.63-.12,7.4-2.67l2.1-3,4.63,3c12.67,8.14,19.42-.4,13.76-17.41-2.88-8.65-1.3-13.51,8-24.52,3.91-4.64,7.12-9.6,7.12-11,0-2.25-.72-2.56-5.93-2.45-5,.1-6.44-.44-9.06-3.32-4.27-4.7-4-10.08.76-16l3.81-4.77L922.2,395a112.36,112.36,0,0,1-14.9-13.27c-10.05-10.72-19.94-15.8-33-17l-8.74-.77v6.62c0,8.52,4,16.71,14.92,30.59C892.93,417,893.8,419.42,894.3,440l.42,17.44-3.59,3.41c-3.24,3.08-4.71,3.47-15.17,4.07-10,.57-12.06,1.09-15,3.68-3.88,3.44-5,5.31-6.24,10.06-.7,2.77-.42,3.37,1.58,3.37,1.34,0,4.55-1.36,7.13-3ZM596.82,434a10.89,10.89,0,0,0,2-5.38c0-2.21,1-2.79,5.83-3.48l5.83-.83-3.89-3.1c-4.62-3.68-5-6.56-1-6.57s10.92-4.21,12-7.33a4.9,4.9,0,0,0-.69-4.38c-2.27-2.59-6.55-2.2-7.34.67-.85,3.09-2.28,3.1-5.52,0-4.87-4.62-5-14.17-.23-19.73,2.24-2.62,2.22-2.79-.64-5.5-3.07-2.91-5.27-8.67-3.83-10,.46-.43,2.89-.09,5.4.77,3.57,1.22,5,1.24,6.44.08,4.45-3.5-.37-8-7.51-7-2.87.4-4.06,0-4.47-1.49-.31-1.13-2.82-2.61-5.65-3.32-5.06-1.28-5.09-1.26-5.09,2.22,0,3.82-2.18,4.54-6.32,2.09-3.37-2-6.63-.45-6.63,3.14,0,3.34,3.36,5,9.39,4.6,4.62-.3,4.79,3.14.4,8.08l-3.16,3.55,2.5,3.59c3.7,5.32,3.39,14.16-.65,18.55l-3.17,3.44-2.08-2.76c-2.89-3.83-6.85-3.58-7.93.52-.71,2.68-.12,3.91,3.23,6.75,2.26,1.91,5.55,3.47,7.32,3.47,4.38,0,4.21,3.44-.34,6.92l-3.56,2.72,5.5.85c3,.47,5.5,1.35,5.5,2,0,2.34,3.81,9.61,5,9.61.71,0,2.19-1.23,3.3-2.73Zm71.66-31.06c5-2,15.82-11.13,15.82-13.4,0-.71-3-4-6.64-7.3-7.68-7-16-18.66-18.2-25.5-1.13-3.57-6.58-9.68-22-24.58l-20.45-19.83-5.89,1.49a51.89,51.89,0,0,1-8.79,1.54c-2.74,0-2.69.2,1,3l3.85,3,5.4-3c5.23-2.9,5.42-2.92,6.06-.58.38,1.37-.44,3.74-1.88,5.48s-2.2,3.6-1.77,4.25-.92,2-3,3c-3.84,1.88-6.5,8.07-3.47,8.07,2.73,0,8.74-7.42,8-9.92-.36-1.29-.18-2.61.38-2.94,2.34-1.37,2.2,4.45-.18,7.32-1.4,1.69-2.2,3.6-1.77,4.25s-.92,2-3,3c-3.81,1.87-6.51,8.07-3.5,8.07s8.86-7.09,8.12-9.74c-.38-1.39-.24-2.79.33-3.12,1.58-.92,2.43,3.67,1.1,5.93a4.28,4.28,0,0,0,0,4.16c1.31,2.37,0,6.91-2.43,8.32-1,.61-.33,1.79,2.18,3.69,3.63,2.74,3.7,3,3.7,15.13,0,10.11.41,12.72,2.27,14.48,2.08,2,2.27,2,2.27.09,0-2.07,3.63-4.6,6.6-4.6.88,0,6.35,4.64,12.17,10.31s12,10.56,13.71,10.87l4.15.73c.56.09,3.18-.69,5.83-1.73ZM606,354c0-3.26-6.72-6.74-14.77-7.64-6.49-.73-6.6-.69-6.6,2.56,0,2.69,1,3.74,5.5,5.69C597.3,357.74,606,357.41,606,354Zm7.37-.3c3.28-3,4.83-6.52,2.86-6.52-2.27,0-8.29,5.41-8.29,7.44C607.9,357.8,609,357.61,613.33,353.7Zm-7-9.64c.28-1.84-.86-3.07-4.27-4.61-7.36-3.32-16.15-4.86-18.27-3.2-3.9,3.07-1.3,7.18,5,7.92a38.38,38.38,0,0,1,7.65,1.72C601.29,347.79,605.9,346.93,606.34,344.06Zm0-9.85c.4-2.62-1.28-3.56-15-8.38-10.23-3.6-14.75-1.9-11.48,4.31,1.14,2.16,3,3.15,7.33,3.79a81,81,0,0,1,9.68,2.07C602.59,337.77,605.89,337.15,606.34,334.21ZM613.2,325c2.07-2.09,3.76-4.57,3.76-5.49,0-3-8.16,2.31-9.2,6-1.25,4.42.77,4.23,5.44-.5Zm-6.86-.62c.45-3-4.52-5.69-14.29-7.76-7.17-1.52-10.33-.66-9.8,2.67.29,1.82,2.68,3.15,9.46,5.26C602.55,327.92,605.81,327.88,606.34,324.36Zm9.56-13.91c12.52-5.58,13.61-19.64,1.8-23.33-4.9-1.53-8-.71-9.91,2.62-1.44,2.54-.48,7.17,1.49,7.17.66,0,1.21.86,1.21,1.9,0,4.88-19.12,7.09-27,3.12-2.75-1.4-4-5-1.66-5,1.71,0,2.9-3.69,2-6.31-1.19-3.56-4.78-4.79-10-3.43-11.74,3.07-11.41,16.87.54,22.72C584.24,314.68,605.73,315,615.9,310.45Zm-7.79-10.8c.73-.69.41-1.74-.81-2.7-2.66-2.09-2.52-5.2.4-8.77,2.19-2.68,2.47-6.68,3.22-47.07,1.3-69.61,6.48-122,13.3-134.53,2.72-5,2.33-5-4.68-.25-9,6.15-15.93,14.16-22,25.63C586,153.61,582,182.74,582,244.91c0,35.31.24,39.92,2.25,43.24,1.91,3.15,2,4.32.67,7.68-.87,2.18-1.26,4.27-.88,4.63,2.57,2.44,21.3,1.79,24.07-.83Zm105.24-66.38c.39-.6-.47-3.64-1.93-6.75-2.26-4.85-3.18-5.65-6.4-5.65-10.1,0-26.34-4.51-43.08-12-9.67-4.31-13-5.3-14.17-4.2-3,2.8,2,9.45,9.57,12.95,6.75,3.1,25.63,6.91,34.25,6.91,5,0,5.11.23,2.27,4.34l-2.09,3,5.65.15a56.44,56.44,0,0,1,9.54,1.08c5.55,1.34,5.6,1.34,6.39.13Z" style="fill:#010101;stroke:#010101;stroke-width:5.559850000000001px"/><path d="M681.54,479.56,685.9,477l1.87,2.52c2.48,3.36,9.36,3.32,13.92-.08l3.49-2.6,2.92,2.6c3.84,3.42,11,3.42,15.59,0,3.21-2.39,3.65-2.44,5.77-.62,1.26,1.08,5,2.32,8.24,2.74,5.88.76,6,.72,9.41-4.44,2.88-4.32,3.33-6.08,2.65-10.27-.46-2.78-.95-7.26-1.09-9.95-.26-4.87-.23-4.9,6.86-7.37a95.67,95.67,0,0,0,10.08-4.07c2.83-1.52,10.64-10.7,10.64-12.51,0-.48-3.05-1.21-6.78-1.63-14.83-1.66-17.34-9.63-7.7-24.42C777.48,382.83,787,359.34,787,344.37c0-6.69.41-8.94,1.27-7.48,3.51,5.95-2.78,30.88-12.32,48.78l-3.84,7.21,3.66-.84c2-.46,13.86-5.46,26.32-11.11C836.25,365.47,848,362.45,870,363.38c18.5.78,26.37,4.39,39.43,18.09,6.92,7.26,13.58,12.45,25.77,20.08,26,16.26,27.06,17.67,28.29,36.79,1.25,19.37.63,20.42-14,23.66-12.52,2.77-20.37,8.6-22.48,16.72-1.12,4.33,1.24,4.46,7.56.4l4.63-3,2.06,3c2.7,3.91,8.45,3.93,13.23,0l3.61-2.94,3.69,2.94c5.73,4.56,13.35,3.46,15.5-2.25.41-1.1,1.52-.75,3.75,1.2,4.19,3.64,14.91,5.2,16.07,2.34.44-1.09-.4-3.79-1.87-6-6.24-9.36-8.19-13.82-8.28-18.92-.11-7.09,2-10.51,10.06-16.27,9.79-7,12.82-16,5.37-16-4.6,0-9.23-4.06-12.19-10.69-6-13.46-4.83-28.55,4.19-53.66,9.16-25.5,10.17-30.2,10.21-47.26,0-13.79-.32-16.17-3.46-23.73a85.15,85.15,0,0,0-8.65-15.29l-5.16-6.89,6.63-5.49c20.23-16.76,16.09-44.2-8.26-54.77-7.45-3.23-9.31-3.52-22.37-3.43a190.63,190.63,0,0,0-26.54,2.29,184.23,184.23,0,0,1-26.59,2.25c-12.72.05-14.88-.26-19.79-2.87-5.11-2.72-6-4-7-10.3a3.75,3.75,0,0,0-2-2.87c-1.74-.55-9.77,6.42-11,9.51-.59,1.52-1.06,1.42-2.78-.61a25.09,25.09,0,0,1-3.54-6.89c-2-6.14.46-10.73,7.67-14.18l5.6-2.67-3.3-2c-6.81-4.22-18.38-1.33-22.57,5.64-1.18,2-2.48,3.59-2.87,3.59s-2.65-1.88-5-4.18c-8.79-8.59-5.77-21.3,6-25.18,6.27-2.07,11.82-.49,13,3.69,1.76,6.38,7.24-2,6.26-9.58-.65-5-.56-5.21,2.93-5.21,4.85,0,15.17,6.36,18.36,11.32,3.71,5.76,3.44,14.82-.64,21.58l-3.2,5.31,4.19-.84c6.14-1.23,12.11-5,15.13-9.67,3.19-4.89,3.54-14.42.7-19.56-2.74-5-2.43-5.77,1.63-4.09,6.9,2.86,10.58,6,13.35,11.43,2.49,4.87,2.63,6.08,1.28,11.16a32,32,0,0,1-4.11,9.15c-2.23,3-2.3,3.46-.53,3.46,3.3,0,10.21-3.13,12.66-5.74a25.67,25.67,0,0,0,4-7.21l1.76-4.82,2,3.67c2.86,5.19,8.42,9.86,15.2,12.77,7.29,3.13,10.33,3.3,6.52.38-2.57-2-7.31-15.88-5.87-17.24.84-.8,10.75,6.82,22.05,17,10.69,9.6,17.42,12.75,27.24,12.75,12.55,0,19.85-10.92,14.21-21.25-3.29-6-10.61-6.86-14.9-1.7-2,2.37-2.51,4.26-1.93,6.75.71,3,.43,3.45-2.34,3.45-3.65,0-10.84-4.67-23.61-15.32-19.47-16.25-43.13-30-60.21-35-11-3.23-34.38-4.49-45.53-2.45-12.06,2.21-26.33,9.11-34.1,16.5-13.77,13.09-14,30.52-.58,46.39l3.84,4.54-2.6,4a17.48,17.48,0,0,0,.8,19.61c1.88,2.57,3.77,4.66,4.21,4.66s.92-1.65,1.07-3.67c.38-5.1,2.56-8.51,6.32-9.86,3.38-1.22,5.57-.64,21.05,5.54,16.29,6.5,43.08,6.95,71.56,1.19,14-2.82,30.43-2.65,37.67.38,13.28,5.56,16.36,20,6.6,31-4.23,4.76-8.3,6.69-22,10.45-10.41,2.86-12.88,3-36.54,2.81-20.22-.2-27.48.19-35.74,1.91-9,1.87-14.47,2.06-40.79,1.4l-30.43-.77,3.37,2.79a53.13,53.13,0,0,0,5.83,4.2c2.3,1.32,2.22,1.49-1.19,2.76a35.54,35.54,0,0,1-9.89,1.35H811.5l-.84,5.31c-.46,2.92-.43,6.33.08,7.57.75,1.84.47,2.1-1.47,1.4-1.31-.48-5-1.42-8.13-2.09a50,50,0,0,1-9.44-3c-3.42-1.68-3.81-1.63-5.07.6-1.13,2-11.7,9.87-13.25,9.87-.25,0-.57-1.52-.72-3.37s-1.67-6.68-3.39-10.73-3.52-8.46-4-9.81c-.72-2-1-2.14-1.91-.61a26.33,26.33,0,0,0-1.86,6.13,29.09,29.09,0,0,1-3.54,8.52l-2.72,4.23-1.74-3.62c-1.87-3.88-5-7.91-6.08-7.91-.38,0-1,1.24-1.43,2.76-.85,3.17-8.2,12-10,12-.66,0-1.2-2.48-1.2-5.52s-.58-5.52-1.29-5.52-1.29.79-1.29,1.75c0,2.33-6.27,9.29-8.37,9.29a5.38,5.38,0,0,0-3.28,1.84c-2.31,2.64-4.2,2.27-3.23-.63.46-1.36.16-4.53-.66-7.05l-1.93-6c-.31-1-2.56-.7-7.31.82-7.69,2.46-10.26,2-6.31-1.07,1.45-1.13,3.64-5.05,4.88-8.71s3.07-6.91,4.07-7.21c1.4-.43,1.32.1-.32,2.33a10.78,10.78,0,0,0-2.14,4.76,15.65,15.65,0,0,1-2,5.43c-1.08,2-1.75,3.75-1.5,4s3.17-.87,6.5-2.47l6-2.9,0,2.59a45.78,45.78,0,0,0,1.62,8.36l1.59,5.77L724,290c4.2-1.93,8.19-8.82,8.19-14.16,0-2.64,1.51-2.24,2.13.57.18.82,1.13,3.91,2.11,6.87l1.78,5.37,2.82-3.39a28.77,28.77,0,0,0,4.32-8.13c1.43-4.52,3.68-6.47,3.68-3.18,0,2.37,6.46,10.86,7.71,10.13.6-.35,1.8-3.54,2.67-7.08,1.8-7.37,4.7-12.38,6.54-11.3a1.28,1.28,0,0,1,.6,1.75c-.36.56,1.12,5.35,3.31,10.65s4.37,10.63,4.87,11.86c.8,2,1.52,1.68,6.19-2.45,2.91-2.57,5.55-5.45,5.87-6.4.48-1.43,1.13-1.38,3.85.31,3.81,2.36,16.61,6.17,17.59,5.23.37-.35.75-3.71.84-7.47l.17-6.83,3.68.76a34.39,34.39,0,0,0,9.46-.06l5.78-.82L823,268.67c-2.83-1.94-5.7-4.46-6.36-5.59s-3.23-2.23-6.09-2.47c-7.71-.66-21.39-8.32-21.39-12,0-.69,1.89.48,4.21,2.6,5.13,4.71,12.27,7.66,18.5,7.66h4.66L813.67,255a22.25,22.25,0,0,1-3.49-9.82c-.56-5.48-1.13-6.35-6.86-10.33a66,66,0,0,1-9.46-8l-3.21-3.61L789,227.61c-.9,2.36-2,4.29-2.45,4.29s-2.18-1.38-3.85-3.07-3.38-3.06-3.79-3.05-1.89,2.28-3.29,5l-2.55,5-2-2.9a44.28,44.28,0,0,0-5.68-6.27c-2-1.86-3.12-3.37-2.39-3.37s3.25,1.93,5.6,4.29l4.28,4.29,1.74-3.15a11.19,11.19,0,0,0,1-7.05c-.68-3.38-.59-3.58.71-1.45a30.54,30.54,0,0,0,5.56,5.75l4.06,3.29,2.8-5.13c2.79-5.11,2.81-5.12,4.08-2.07,1.7,4.08,14,14.15,24.44,20q2.42,1.36-2-9.38a23.76,23.76,0,0,1-1.43-7.61c0-3.39-1-4.9-5.31-8.2-6.26-4.76-8.28-8.15-9.46-15.83-.48-3.11-1.57-6.58-2.43-7.69-1.28-1.66-1.49-.73-1.15,5,.23,3.89-.28,8.74-1.12,10.76l-1.54,3.68-1.19-3.07c-.66-1.69-3.56-4.62-6.45-6.52s-4.92-3.77-4.51-4.16,3.39,1.34,6.61,3.84c4.91,3.81,6,4.23,6.68,2.55.8-2,0-10.56-1.55-16.56-.77-3-.7-3,3,.72,2.73,2.73,4.23,6,5.4,11.65,1.48,7.21,2.23,8.41,8.9,14.26,4,3.51,7.48,6.19,7.74,6s.76-9.33,1.12-20.2c.7-20.84-.09-25.8-5.11-32.24l-2.58-3.31,4.05-4.37c5.29-5.7,7.72-10.28,8.77-16.51l.86-5.08-4.58,4.33c-3.75,3.55-5.54,4.33-9.87,4.33s-6-.72-8.87-3.81c-3.47-3.7-9.63-7.26-15.55-9-2.19-.64-2.91-.36-2.91,1.12,0,1.08-1.21,4.21-2.68,7l-2.68,5-5.62-5.56c-3.45-3.41-7.54-6.06-10.59-6.86-7.78-2-8.2-1.84-8.2,4,0,8.79-3.75,10.43-10.51,4.59-5.15-4.46-9.42-5.42-19.19-4.35l-7.54.83,1.36,3.41c1.13,2.84.88,4-1.55,7.27-3.94,5.24-9.06,7.51-16.95,7.51-3.63,0-8.18.75-10.1,1.67s-6.7,2-10.62,2.35a56.26,56.26,0,0,0-9.28,1.49c-1.86.69-2.06.12-1.46-4.1.91-6.46-3.6-11.22-10.63-11.22-9.12,0-13.33,8.16-9.76,18.92.69,2.07,1.59,5.34,2,7.26s4.54,7.28,9.57,12.32c4.85,4.85,9.44,9.9,10.19,11.22s3.24,3.44,5.53,4.7l4.16,2.31L677.6,202c-.6-4.89.46-5.66,3.07-2.21a23,23,0,0,0,5.25,4.43c3.08,1.9,3.56,1.94,3.56.29a19,19,0,0,1,1.4-5.35l1.4-3.45,2.42,4.7c1.33,2.58,5.67,8.46,9.64,13,7.7,8.91,12.39,18.87,10,21.16-1,.93-3.64.86-9.14-.25-4.26-.86-9.54-1.31-11.72-1-4.46.62-4.81,0-2.07-3.39,2.89-3.62,2.43-4.22-3.25-4.22-6.58,0-22.9-3.15-29.17-5.63-6.09-2.41-7.5-1.81-9.29,4-.81,2.6-2.29,7.31-3.28,10.47l-1.82,5.74,6.59-.63a69.07,69.07,0,0,0,10.36-1.76c2.07-.62,4-1,4.19-.73s-.7,2.46-2.05,5l-2.47,4.59,4.11-.84a38.69,38.69,0,0,0,7.56-2.51c3.3-1.6,3.57-1.48,6.17,2.7,3.2,5.14,5.76,4.93,6.33-.52.59-5.63,2.44-4.8,5.93,2.66,3.35,7.18,6.84,9.71,7.51,5.46.22-1.41,2-3.71,4-5.11,4-2.83,7-2,8.77,2.46,1.79,4.6-2.21,9.33-13.85,16.39q-35,21.21-40.76,58.13c-3.49,22.23,7.41,45.21,29.29,61.71,10.47,7.9,27.1,16.23,26,13.05-4.49-13.5-4.34-39.27.25-43.62.69-.65.45,2-.53,6-3.65,14.67-2.06,26.36,7.28,53.76,8.45,24.78,7.28,35.37-4.68,42.37-3.84,2.25-6.31,2.62-16.64,2.49-11.21-.14-12.43.09-16,3s-8,11.91-8,16.16c0,2.31,2.56,2,7.6-.9Zm90.82-214.92c0-1.8-5.28-6.68-10.64-9.82-4.2-2.47-4.9-2.54-4.91-.53,0,3.06-2.73,10.73-3.8,10.73-.6,0-1.49-1.5-2-3.33a29.48,29.48,0,0,0-4.53-8l-3.65-4.7L740,253.31c-2.65,4.06-7.23,8-9.27,8-.49,0-.58-2.14-.21-4.75.4-2.84.09-5.09-.77-5.59s-1.44-.3-1.44.36c0,1.53-6.37,8.75-7.71,8.75-.56,0-1.33-2.07-1.73-4.6s-1.07-6.53-1.49-8.89.48-.76,2,3.56L722.2,258l3.06-4.78c1.68-2.63,3.06-5.51,3.06-6.39s.57-1.27,1.26-.87,1.65,3.57,2.14,7l.88,6.29,3.37-3.69a54.33,54.33,0,0,0,4.82-6c1.43-2.3,1.51-2.3,4.35.11a29.82,29.82,0,0,1,5.43,7.17c1.4,2.59,2.73,4.53,3,4.29a29.89,29.89,0,0,0,1.14-5.94c.4-3,.75-5.63.79-5.77.2-.75,10.13,5.71,13.81,9,2.36,2.1,4.61,3.53,5,3.17s.69-3.46.69-6.89c0-5.32-.56-6.74-3.82-9.65-3.74-3.34-3.84-3.36-5.23-.92-1.79,3.17-3.91,3.22-3.91.08,0-2.29-7.07-11.08-8.9-11.08-.48,0-2,1.93-3.31,4.29s-2.79,4.29-3.21,4.29c-1.81,0-11.77-11.12-11.77-13.12,0-1.59.67-1.19,2.42,1.48a39.51,39.51,0,0,0,5.89,6.71c3.87,3.38,5.28,2.56,6.78-4,.43-1.85,1.17-3.37,1.64-3.37,1.66,0,10.33,9.21,11.55,12.26l1.22,3.07.93-3.37c1.13-4.12,2.38-4.28,4.2-.51.76,1.57,4.49,4.84,8.3,7.26l6.93,4.41,1.39-4.43c.76-2.44,1.78-3.84,2.25-3.11.71,1.08-1.09,8.42-2.45,10-.2.24-2.45-1.07-5-2.91l-4.62-3.33,0,6a43.7,43.7,0,0,1-.8,8.73c-.84,3-3.07,3.8-3.07,1.15ZM737.82,217c-8.23-6.87-9.48-8.44-9.3-11.7l.19-3.47.54,3.35c.31,2,2.51,4.88,5.27,7l4.73,3.69,2.91-3.36c1.6-1.85,2.93-4.05,3-4.9.07-2.2.46-2,6,2.82,5,4.3,5,4.32,5.76,1.53a14.59,14.59,0,0,0-.32-6.49c-1.62-5.55-1.3-6.39,1.15-3a60.1,60.1,0,0,0,4.36,5.24c2.05,2.11,2.18,2.09,2.94-.61a28.6,28.6,0,0,0,.82-6.31l0-3.49,4.46,5.06c4.17,4.73,4.55,4.9,5.83,2.65a18,18,0,0,0,1.38-7.09c0-3.32.36-4.16,1.21-2.9,1.41,2.11.43,7.87-2.18,12.78l-1.87,3.52-2.46-3.83c-3.14-4.89-4.19-4.81-6.2.47-1.91,5-3.14,5.37-5,1.53-1.2-2.48-1.43-2.18-2.28,3l-.95,5.8L752.15,214l-5.68-4.41-2.55,2.9c-1.4,1.6-2.57,3.59-2.6,4.44-.05,1.83-1.42,1.88-3.5.15ZM811,191.43c-3-2.7-5.06-5.27-4.59-5.72s1-.58,1.18-.29,2.63,2.87,5.44,5.72C819.56,197.72,818.23,197.91,811,191.43Zm-97.53-10.08c-2.73-3.69-2.54-6.13.78-10.12,2.4-2.89,3.49-3.28,7.68-2.75,2.69.34,8.46,2.71,12.84,5.27,5.06,3,10.28,4.93,14.33,5.43,3.51.43,6.38.59,6.38.36a46,46,0,0,0-3.24-5.27c-4.23-6.34-4.08-7,.69-3.22s10.75,5,23.84,4.64l6.39-.19-3.71-3.67c-5.19-5.13-3.59-5.59,2.14-.62,5.37,4.66,5,5-6.27,6.12a42.82,42.82,0,0,1-14.27-1c-6.43-1.63-6.67-1.61-5.46.55.7,1.24,1.84,2.26,2.53,2.26a1.33,1.33,0,0,1,1.25,1.4c0,2.36-13.88.29-20.51-3.07-15.15-7.67-17.06-8.34-20.66-7.2a8,8,0,0,0-4.71,4.34c-2.31,6.19,6.47,11,10.08,5.53,1-1.58.8-2.67-1-4.6-2.52-2.64-2.29-3,1.12-1.78,2.42.88,2.75,6.69.49,8.82C721.61,185,715.73,184.35,713.51,181.35Zm59.69-15.28c-1.89-1.79-.41-2.23,8.08-2.39,10.51-.2,16.89-1.95,24.42-6.7,6-3.81,7.67-3.06,1.94.89-5.22,3.6-13.37,6.37-21.24,7.22-3.81.41-8.15,1-9.65,1.26S773.66,166.5,773.19,166.07Zm90.26,313,4.7-3,3.19,3c4.18,4,9.08,3.87,13.09-.24,1.75-1.79,3.33-3,3.5-2.76s1,1.6,1.74,3c1,1.71,3,2.57,6.72,2.83,4.44.31,5.63-.12,7.4-2.67l2.1-3,4.63,3c12.67,8.14,19.42-.4,13.76-17.41-2.88-8.65-1.3-13.51,8-24.52,3.91-4.64,7.12-9.6,7.12-11,0-2.25-.72-2.56-5.93-2.45-5,.1-6.44-.44-9.06-3.32-4.27-4.7-4-10.08.76-16l3.81-4.77L922.2,395a112.36,112.36,0,0,1-14.9-13.27c-10.05-10.72-19.94-15.8-33-17l-8.74-.77v6.62c0,8.52,4,16.71,14.92,30.59C892.93,417,893.8,419.42,894.3,440l.42,17.44-3.59,3.41c-3.24,3.08-4.71,3.47-15.17,4.07-10,.57-12.06,1.09-15,3.68-3.88,3.44-5,5.31-6.24,10.06-.7,2.77-.42,3.37,1.58,3.37,1.34,0,4.55-1.36,7.13-3ZM596.82,434a10.89,10.89,0,0,0,2-5.38c0-2.21,1-2.79,5.83-3.48l5.83-.83-3.89-3.1c-4.62-3.68-5-6.56-1-6.57s10.92-4.21,12-7.33a4.9,4.9,0,0,0-.69-4.38c-2.27-2.59-6.55-2.2-7.34.67-.85,3.09-2.28,3.1-5.52,0-4.87-4.62-5-14.17-.23-19.73,2.24-2.62,2.22-2.79-.64-5.5-3.07-2.91-5.27-8.67-3.83-10,.46-.43,2.89-.09,5.4.77,3.57,1.22,5,1.24,6.44.08,4.45-3.5-.37-8-7.51-7-2.87.4-4.06,0-4.47-1.49-.31-1.13-2.82-2.61-5.65-3.32-5.06-1.28-5.09-1.26-5.09,2.22,0,3.82-2.18,4.54-6.32,2.09-3.37-2-6.63-.45-6.63,3.14,0,3.34,3.36,5,9.39,4.6,4.62-.3,4.79,3.14.4,8.08l-3.16,3.55,2.5,3.59c3.7,5.32,3.39,14.16-.65,18.55l-3.17,3.44-2.08-2.76c-2.89-3.83-6.85-3.58-7.93.52-.71,2.68-.12,3.91,3.23,6.75,2.26,1.91,5.55,3.47,7.32,3.47,4.38,0,4.21,3.44-.34,6.92l-3.56,2.72,5.5.85c3,.47,5.5,1.35,5.5,2,0,2.34,3.81,9.61,5,9.61.71,0,2.19-1.23,3.3-2.73Zm71.66-31.06c5-2,15.82-11.13,15.82-13.4,0-.71-3-4-6.64-7.3-7.68-7-16-18.66-18.2-25.5-1.13-3.57-6.58-9.68-22-24.58l-20.45-19.83-5.89,1.49a51.89,51.89,0,0,1-8.79,1.54c-2.74,0-2.69.2,1,3l3.85,3,5.4-3c5.23-2.9,5.42-2.92,6.06-.58.38,1.37-.44,3.74-1.88,5.48s-2.2,3.6-1.77,4.25-.92,2-3,3c-3.84,1.88-6.5,8.07-3.47,8.07,2.73,0,8.74-7.42,8-9.92-.36-1.29-.18-2.61.38-2.94,2.34-1.37,2.2,4.45-.18,7.32-1.4,1.69-2.2,3.6-1.77,4.25s-.92,2-3,3c-3.81,1.87-6.51,8.07-3.5,8.07s8.86-7.09,8.12-9.74c-.38-1.39-.24-2.79.33-3.12,1.58-.92,2.43,3.67,1.1,5.93a4.28,4.28,0,0,0,0,4.16c1.31,2.37,0,6.91-2.43,8.32-1,.61-.33,1.79,2.18,3.69,3.63,2.74,3.7,3,3.7,15.13,0,10.11.41,12.72,2.27,14.48,2.08,2,2.27,2,2.27.09,0-2.07,3.63-4.6,6.6-4.6.88,0,6.35,4.64,12.17,10.31s12,10.56,13.71,10.87l4.15.73c.56.09,3.18-.69,5.83-1.73ZM606,354c0-3.26-6.72-6.74-14.77-7.64-6.49-.73-6.6-.69-6.6,2.56,0,2.69,1,3.74,5.5,5.69C597.3,357.74,606,357.41,606,354Zm7.37-.3c3.28-3,4.83-6.52,2.86-6.52-2.27,0-8.29,5.41-8.29,7.44C607.9,357.8,609,357.61,613.33,353.7Zm-7-9.64c.28-1.84-.86-3.07-4.27-4.61-7.36-3.32-16.15-4.86-18.27-3.2-3.9,3.07-1.3,7.18,5,7.92a38.38,38.38,0,0,1,7.65,1.72C601.29,347.79,605.9,346.93,606.34,344.06Zm0-9.85c.4-2.62-1.28-3.56-15-8.38-10.23-3.6-14.75-1.9-11.48,4.31,1.14,2.16,3,3.15,7.33,3.79a81,81,0,0,1,9.68,2.07C602.59,337.77,605.89,337.15,606.34,334.21ZM613.2,325c2.07-2.09,3.76-4.57,3.76-5.49,0-3-8.16,2.31-9.2,6-1.25,4.42.77,4.23,5.44-.5Zm-6.86-.62c.45-3-4.52-5.69-14.29-7.76-7.17-1.52-10.33-.66-9.8,2.67.29,1.82,2.68,3.15,9.46,5.26C602.55,327.92,605.81,327.88,606.34,324.36Zm9.56-13.91c12.52-5.58,13.61-19.64,1.8-23.33-4.9-1.53-8-.71-9.91,2.62-1.44,2.54-.48,7.17,1.49,7.17.66,0,1.21.86,1.21,1.9,0,4.88-19.12,7.09-27,3.12-2.75-1.4-4-5-1.66-5,1.71,0,2.9-3.69,2-6.31-1.19-3.56-4.78-4.79-10-3.43-11.74,3.07-11.41,16.87.54,22.72C584.24,314.68,605.73,315,615.9,310.45Zm-7.79-10.8c.73-.69.41-1.74-.81-2.7-2.66-2.09-2.52-5.2.4-8.77,2.19-2.68,2.47-6.68,3.22-47.07,1.3-69.61,6.48-122,13.3-134.53,2.72-5,2.33-5-4.68-.25-9,6.15-15.93,14.16-22,25.63C586,153.61,582,182.74,582,244.91c0,35.31.24,39.92,2.25,43.24,1.91,3.15,2,4.32.67,7.68-.87,2.18-1.26,4.27-.88,4.63,2.57,2.44,21.3,1.79,24.07-.83Zm105.24-66.38c.39-.6-.47-3.64-1.93-6.75-2.26-4.85-3.18-5.65-6.4-5.65-10.1,0-26.34-4.51-43.08-12-9.67-4.31-13-5.3-14.17-4.2-3,2.8,2,9.45,9.57,12.95,6.75,3.1,25.63,6.91,34.25,6.91,5,0,5.11.23,2.27,4.34l-2.09,3,5.65.15a56.44,56.44,0,0,1,9.54,1.08c5.55,1.34,5.6,1.34,6.39.13Z" style="fill:#fab612"/></symbol></defs><title>cover</title><g style="clip-path:url(#a)"><circle cx="0.57" cy="371.46" r="287.63" style="fill:#4453a0"/></g><circle cx="364.18" cy="155" r="82.83" style="fill:#ec6291"/><path d="M356.21,566.15A11.23,11.23,0,0,1,345,577.38H24.35a11.23,11.23,0,0,1-11.23-11.23h0a11.23,11.23,0,0,1,11.23-11.23H345a11.23,11.23,0,0,1,11.23,11.23Z" style="fill:#e7e3e1"/><rect x="287.05" y="507.23" width="14.86" height="55.88" style="fill:#c4a249"/><rect x="67.73" y="507.23" width="14.86" height="55.88" style="fill:#c4a249"/><path d="M189.66,392.86s6.49,33.32-4.84,45.76" style="fill:none;stroke:#735942;stroke-linecap:round;stroke-linejoin:round;stroke-width:1.5px"/><path d="M289.47,404.1s9.41,6.66,12.18,42.78c1.54,20,6.94,32.7,6.94,32.7s13.17-2.46,11.1,8.59-21.5,6.38-21.5,6.38l-8.72-22.24Z" style="fill:#fcd5b3"/><path d="M250.26,405.36s-5.7-5.1-14.37,5.24-36.74,65.79-42.3,69.49c0,0-19.81,5.18-18.6,10.35s24.87,0,29.31,0,29.48-46.06,37.72-65.57Z" style="fill:#fcd5b3"/><path d="M154.94,430.2c-5.13-8.93-9.66-16.41-12.33-19.6-8.68-10.35-14.37-5.24-14.37-5.24l8.24,19.51c1.83,4.34,4.5,10,7.58,16.16A70.73,70.73,0,0,0,154.94,430.2Z" style="fill:#4b6b8e"/><path d="M184.9,480.09c-3.84-2.56-18.45-29.86-30-49.89A70.73,70.73,0,0,1,144.06,441c10.78,21.56,26.69,49.42,30.14,49.42,4.44,0,28.09,5.17,29.31,0S184.9,480.09,184.9,480.09Z" style="fill:#fcd5b3"/><path d="M324.91,498.91a8.32,8.32,0,0,1-8.32,8.32H53a8.32,8.32,0,0,1-8.32-8.32h0A8.32,8.32,0,0,1,53,490.59H316.59a8.32,8.32,0,0,1,8.32,8.32Z" style="fill:#dcbf7c"/><path d="M218.4,491.28s8.72-90.56,45.52-99.82c34.66-8.72,27.77,19.4,27.77,42.69,0,28.57,12,52.28,12,52.28C283.76,500.4,227,502.39,218.4,491.28Z" style="fill:#ed6f87"/><path d="M205.35,356.91s-4.63-37.84,1.84-49c21.65-37.51,122.23-34.26,117.18,28.2-5.55,68.71-70.87,72.43-96.11,59.52-11.34-5.8-18.25-15.65-27.21-28C194.39,358.43,205.35,356.91,205.35,356.91Z" style="fill:#fcd5b3"/><path d="M261.57,353.78s5.16-10.74,13.82-6.95c17.13,7.5-2.78,25-2.78,25s3.35,17.38,23.23,17.38,29.53-27.09,30.61-55.26-24.64-75.45-83.76-59.54c0,0-39.6-7.57-48.64,18.85-8.45,24.7,18.3,40.78,28.71,49C239.24,355.17,233,325.51,233,325.51,242,319.7,244.27,365.59,261.57,353.78Z" style="fill:#e48c66"/><path d="M316.86,296.21s3.9-21.9,27-21.38,33.51,42.34,19.43,56.45c0,0,17.73-1.18,15.65,7.69s-39.82,18.47-57.36-14.62C311.34,305.07,316.86,296.21,316.86,296.21Z" style="fill:#e48c66"/><path d="M224.33,362.13c-2.79-4.3-3.6-21.23,1.52-21.93,7.12-1,6.68,9.08,5.74,16C230.34,365.32,226,364.63,224.33,362.13Z" style="fill:#735942"/><path d="M218.4,386.13s8.59,4.66,19.47-4.76" style="fill:none;stroke:#735942;stroke-linecap:round;stroke-linejoin:round;stroke-width:1.5px"/><path d="M239.31,372c-1.2-4.55,12.54-8.06,12.64-4.11C252.12,374.21,240.78,377.55,239.31,372Z" style="fill:#f6b0a3"/><path d="M146.71,490.59s5.41-85-29.54-92.42S80.06,414.69,80.06,438c0,28.57-18.18,41.39,1.79,55.38S138.09,501.7,146.71,490.59Z" style="fill:#6e85a7"/><path d="M168.48,356.91s4.63-37.84-1.84-49C145,270.35,44.42,273.6,49.46,336.06c5.55,68.71,70.86,72.43,96.11,59.52,11.33-5.8,18.24-15.65,27.21-28C179.44,358.43,168.48,356.91,168.48,356.91Z" style="fill:#fcd5b3"/><path d="M149.49,362.13c2.8-4.3,3.61-21.23-1.51-21.93-7.12-1-6.69,9.08-5.74,16C143.49,365.32,147.86,364.63,149.49,362.13Z" style="fill:#735942"/><path d="M155.43,386.13s-8.59,4.66-19.47-4.76" style="fill:none;stroke:#735942;stroke-linecap:round;stroke-linejoin:round;stroke-width:1.5px"/><path d="M134.52,372c1.2-4.55-12.54-8.06-12.64-4.11C121.71,374.21,133,377.55,134.52,372Z" style="fill:#f6b0a3"/><path d="M90.81,347.44s-7.34-9.59-14.67-4.95-6.67,24.62,7.34,28c0,0,6.16,18.46-4.59,20.24s-32.76-31.34-33.43-60.47,26-55.52,48-61.67,11.34,9.19,11.34,9.19S126.43,264,136,264.22s.87,11.31.87,11.31,16-4.33,24-.71-2.74,15-2.74,15,14.9,9.33,16.83,18.67-46.7-5.34-46.7-5.34,15.54,7.34,7.74,12-25.75-4-25.75-4,15.95,20.08,6.61,19-20-8.38-20-8.38,7.34,9.33,4.67,18.34S90.81,347.44,90.81,347.44Z" style="fill:#735942"/><path d="M246.2,518.94s8.31-31.9-3.4-34.57-9.91,61.34-9.91,61.34-10.27,14-7.37,19.43,17.51,4.32,23.54,0-6.26-18.54-6.26-18.54S244.89,525,246.2,518.94Z" style="fill:#735942"/><path d="M282.27,518.94s8.31-31.9-3.4-34.57S269,545.7,269,545.7s-10.27,14-7.37,19.43,17.51,4.32,23.54,0-6.26-18.54-6.26-18.54S281,525,282.27,518.94Z" style="fill:#735942"/><path d="M93.68,518.94s8.31-31.9-3.4-34.57-9.91,61.34-9.91,61.34-10.27,14-7.37,19.43,17.51,4.32,23.54,0-6.26-18.54-6.26-18.54S92.37,525,93.68,518.94Z" style="fill:#735942"/><path d="M129.75,518.94s8.31-31.9-3.4-34.57-9.91,61.34-9.91,61.34-10.27,14-7.37,19.43,17.51,4.32,23.54,0-6.26-18.54-6.26-18.54S128.44,525,129.75,518.94Z" style="fill:#735942"/><path d="M117.77,408.09c-15.8.4-27.9,1.8-29,5.1-3.47,10.12,10.48,12.49,24,12.69,1.3,0,2.93,0,4.8,0C117.11,420,117.57,414.22,117.77,408.09Z" style="fill:#4b6b8e"/><path d="M198.9,410.76s-48.46-3.5-81.13-2.68c-.21,6.13-.66,11.87-.27,17.76,17.63-.4,57.48-3.28,57.48-3.28s.44,7.45,12.93,8.61S215.43,414.87,198.9,410.76Z" style="fill:#fcd5b3"/><path d="M192.52,389.57s8.27-10,2.24-11.9-7,11-7,11-3.21-7.79-7.74-5.34,2.82,7,2.82,7-5.73.89-6.67,5.25,7.17,1.35,7.17,1.35-3.5,9.66-.15,9.43,7.32-5.88,7.32-5.88,2.87,3.9,7,3.52-2.63-8.21-2.63-8.21,8.47,1.3,8.57-3.91S192.52,389.57,192.52,389.57Z" style="fill:#e1625b"/><path d="M402.42,368.79a53.79,53.79,0,0,0-51.12,37.09c-11.52,1.19-26.18-.31-44.18-7.59,0,0,13.66,21.54,41.56,25.59a53.76,53.76,0,1,0,53.74-55.09Z" style="fill:#e7e3e1"/><path d="M404.09,446.62s17.57-9.35,21.25-26c4.55-20.56-23.23-20.94-23,.37,0,0-.13-15.85-11.82-15.67C376,405.59,370.08,429,404.09,446.62Z" style="fill:#ed695e"/><text transform="translate(112.7 640.86)" style="font-size:35.19910430908203px;fill:#ec6291;font-family:Somatic-Rounded, Somatic">Meet Your<tspan x="0" y="42.24">Significant Other</tspan></text><g style="clip-path:url(#b)"><circle cx="516.42" cy="798.86" r="159.83" style="fill:#ed695e"/></g><text transform="translate(215.97 773.41)" style="font-size:5.420979976654053px;fill:#1d1d1b;font-family:Somatic-Rounded, Somatic">Sri Lankans Only</text><use width="1200" height="600" transform="translate(220.09 749.14) scale(0.03)" xlink:href="#c"/></svg>